<svg width="24" height="24" viewBox="0 0 24 24" fill="none" xmlns="http://www.w3.org/2000/svg">
<path fill-rule="evenodd" clip-rule="evenodd" d="M0 12C0 5.37258 5.37258 0 12 0C18.6274 0 24 5.37258 24 12C24 18.6274 18.6274 24 12 24C5.37258 24 0 18.6274 0 12Z" fill="#168DE2"/>
<path fill-rule="evenodd" clip-rule="evenodd" d="M14.4868 11.9344C14.4048 10.3422 13.2232 9.38481 11.796 9.38481H11.7423C10.0953 9.38481 9.18188 10.68 9.18188 12.1511C9.18188 13.7986 10.287 14.839 11.7358 14.839C13.3514 14.839 14.4137 13.6557 14.4906 12.2561L14.4868 11.9344ZM11.7504 7.96027C12.8508 7.96027 13.8854 8.44661 14.6452 9.2081V9.21113C14.6452 8.84533 14.8912 8.5698 15.233 8.5698L15.3192 8.56923C15.8538 8.56923 15.9634 9.07507 15.9634 9.23516L15.9661 14.9206C15.9284 15.2925 16.3502 15.4846 16.5841 15.2461C17.497 14.3079 18.5891 10.4232 16.0166 8.17221C13.6189 6.07375 10.4021 6.41968 8.69118 7.59882C6.87242 8.85328 5.7086 11.6292 6.83911 14.2365C8.07143 17.0812 11.5979 17.929 13.6937 17.0832C14.7549 16.6548 15.2453 18.0896 14.1429 18.5582C12.4775 19.268 7.84207 19.1965 5.67662 15.4454C4.21362 12.9124 4.29159 8.45569 8.17173 6.1468C11.1401 4.38064 15.0536 4.86982 17.4134 7.33446C19.8801 9.91074 19.7363 14.735 17.3301 16.6117C16.2401 17.4634 14.621 16.634 14.6314 15.3922L14.62 14.9861C13.861 15.7395 12.8508 16.1789 11.7504 16.1789C9.57587 16.1789 7.66268 14.2655 7.66268 12.0917C7.66268 9.8956 9.57587 7.96027 11.7504 7.96027Z" fill="white"/>
</svg>
