<svg width="24" height="24" viewBox="0 0 24 24" fill="none" xmlns="http://www.w3.org/2000/svg">
<path fill-rule="evenodd" clip-rule="evenodd" d="M12 24C18.6274 24 24 18.6274 24 12C24 5.37258 18.6274 0 12 0C5.37258 0 0 5.37258 0 12C0 18.6274 5.37258 24 12 24Z" fill="#25D366"/>
<path fill-rule="evenodd" clip-rule="evenodd" d="M12.3955 18.6762H12.3925C11.1983 18.6757 10.0249 18.3761 8.98263 17.8076L5.19995 18.7999L6.21226 15.1023C5.58782 14.0202 5.25924 12.7926 5.25978 11.535C5.26134 7.60075 8.46236 4.3999 12.3954 4.3999C14.3043 4.40073 16.0959 5.14384 17.4431 6.49261C18.7902 7.84131 19.5318 9.63407 19.531 11.5407C19.5294 15.474 16.3297 18.6746 12.3955 18.6762ZM9.15791 16.5158L9.37448 16.6444C10.2851 17.1847 11.3289 17.4707 12.3931 17.4711H12.3955C15.6644 17.4711 18.3249 14.8105 18.3262 11.5402C18.3269 9.9555 17.7106 8.46544 16.5908 7.34439C15.4711 6.22335 13.982 5.60567 12.3979 5.60512C9.12644 5.60512 6.46587 8.26545 6.46457 11.5354C6.46411 12.6561 6.77767 13.7475 7.37135 14.6917L7.51236 14.9161L6.91322 17.1047L9.15791 16.5158ZM15.9904 13.2375C15.9458 13.1631 15.827 13.1185 15.6487 13.0292C15.4704 12.94 14.5938 12.5087 14.4303 12.4491C14.2669 12.3897 14.148 12.3599 14.0292 12.5384C13.9104 12.7168 13.5687 13.1185 13.4647 13.2375C13.3606 13.3564 13.2566 13.3714 13.0784 13.2821C12.9001 13.1928 12.3256 13.0046 11.6446 12.3971C11.1146 11.9244 10.7567 11.3405 10.6527 11.162C10.5487 10.9835 10.6416 10.8871 10.7309 10.7982C10.8111 10.7182 10.9092 10.5899 10.9983 10.4858C11.0875 10.3817 11.1172 10.3073 11.1766 10.1884C11.2361 10.0693 11.2064 9.96525 11.1618 9.876C11.1172 9.78675 10.7606 8.90915 10.6121 8.55215C10.4673 8.20449 10.3203 8.25159 10.2109 8.24609C10.107 8.24088 9.98804 8.23978 9.86919 8.23978C9.75034 8.23978 9.55717 8.2844 9.39374 8.4629C9.23032 8.6414 8.76973 9.07275 8.76973 9.95029C8.76973 10.8279 9.40859 11.6757 9.49775 11.7947C9.58689 11.9137 10.755 13.7145 12.5435 14.4868C12.9689 14.6706 13.301 14.7803 13.5599 14.8624C13.987 14.9981 14.3758 14.979 14.6829 14.9331C15.0255 14.8819 15.7378 14.5018 15.8864 14.0853C16.0349 13.6688 16.0349 13.3118 15.9904 13.2375Z" fill="#FDFDFD"/>
</svg>
